<svg width="81" height="23" viewBox="0 0 81 23" fill="none" xmlns="http://www.w3.org/2000/svg">
    <path d="M7.272 18.264C6.664 18.264 6.032 18.224 5.376 18.144C4.736 18.064 4.104 17.928 3.48 17.736C2.856 17.544 2.272 17.32 1.728 17.064C1.296 16.84 0.992 16.552 0.816 16.2C0.656 15.832 0.6 15.456 0.648 15.072C0.712 14.688 0.856 14.352 1.08 14.064C1.32 13.776 1.624 13.584 1.992 13.488C2.376 13.392 2.808 13.456 3.288 13.68C4.008 14.032 4.76 14.28 5.544 14.424C6.344 14.568 7.064 14.64 7.704 14.64C8.616 14.64 9.312 14.496 9.792 14.208C10.288 13.904 10.536 13.528 10.536 13.08C10.536 12.712 10.384 12.408 10.08 12.168C9.792 11.912 9.328 11.712 8.688 11.568L5.928 10.896C4.712 10.624 3.744 10.104 3.024 9.336C2.32 8.568 1.968 7.616 1.968 6.48C1.968 5.568 2.16 4.768 2.544 4.08C2.928 3.376 3.456 2.784 4.128 2.304C4.8 1.808 5.568 1.44 6.432 1.2C7.296 0.943999 8.2 0.816 9.144 0.816C9.912 0.816 10.744 0.903999 11.64 1.08C12.536 1.256 13.392 1.568 14.208 2.016C14.592 2.208 14.864 2.472 15.024 2.808C15.2 3.144 15.272 3.496 15.24 3.864C15.208 4.216 15.072 4.528 14.832 4.8C14.608 5.072 14.288 5.256 13.872 5.352C13.472 5.432 12.992 5.36 12.432 5.136C11.936 4.912 11.392 4.744 10.8 4.632C10.208 4.504 9.648 4.44 9.12 4.44C8.528 4.44 8.016 4.512 7.584 4.656C7.168 4.784 6.848 4.968 6.624 5.208C6.4 5.448 6.288 5.72 6.288 6.024C6.288 6.392 6.424 6.696 6.696 6.936C6.968 7.176 7.392 7.368 7.968 7.512L10.728 8.16C12.04 8.464 13.056 9.008 13.776 9.792C14.496 10.56 14.856 11.488 14.856 12.576C14.856 13.536 14.648 14.376 14.232 15.096C13.832 15.8 13.272 16.392 12.552 16.872C11.848 17.336 11.04 17.688 10.128 17.928C9.216 18.152 8.264 18.264 7.272 18.264ZM20.1688 18.264C19.3368 18.264 18.6168 18.088 18.0088 17.736C17.4168 17.384 16.9928 16.832 16.7368 16.08C16.4968 15.328 16.4648 14.36 16.6408 13.176L17.4808 7.944C17.5928 7.272 17.8408 6.776 18.2248 6.456C18.6088 6.136 19.1288 5.976 19.7848 5.976C20.5208 5.976 21.0488 6.176 21.3688 6.576C21.7048 6.976 21.8168 7.552 21.7048 8.304L20.9368 13.104C20.8568 13.728 20.9048 14.2 21.0808 14.52C21.2568 14.84 21.6008 15 22.1128 15C22.7368 15 23.2568 14.776 23.6728 14.328C24.0888 13.88 24.3608 13.256 24.4888 12.456L25.2088 7.944C25.3208 7.272 25.5688 6.776 25.9528 6.456C26.3368 6.136 26.8568 5.976 27.5128 5.976C28.2328 5.976 28.7528 6.176 29.0728 6.576C29.4088 6.976 29.5208 7.552 29.4088 8.304L28.1608 16.248C27.9528 17.56 27.1848 18.216 25.8568 18.216C25.1848 18.216 24.6968 18.048 24.3928 17.712C24.0888 17.36 23.9928 16.808 24.1048 16.056L24.2968 14.76L24.2728 15.816C23.8408 16.648 23.2648 17.264 22.5448 17.664C21.8408 18.064 21.0488 18.264 20.1688 18.264ZM32.4709 18.216C31.7989 18.216 31.3029 18.008 30.9829 17.592C30.6789 17.176 30.5829 16.592 30.6949 15.84L31.9189 7.992C32.0309 7.32 32.2869 6.816 32.6869 6.48C33.1029 6.144 33.6469 5.976 34.3189 5.976C34.9909 5.976 35.4789 6.184 35.7829 6.6C36.0869 7 36.1749 7.584 36.0469 8.352L35.9269 9.096H35.7109C35.9989 8.152 36.4949 7.4 37.1989 6.84C37.9189 6.264 38.7429 5.96 39.6709 5.928C40.1829 5.912 40.5509 6.016 40.7749 6.24C40.9989 6.448 41.1109 6.808 41.1109 7.32C41.1109 8.072 40.9349 8.632 40.5829 9C40.2469 9.352 39.7269 9.56 39.0229 9.624L38.1349 9.72C37.3029 9.8 36.7029 10.04 36.3349 10.44C35.9829 10.84 35.7349 11.464 35.5909 12.312L34.9909 16.176C34.8789 16.864 34.6149 17.376 34.1989 17.712C33.7829 18.048 33.2069 18.216 32.4709 18.216ZM46.9157 18.216C46.2437 18.216 45.7157 18.064 45.3317 17.76C44.9477 17.44 44.6597 16.968 44.4677 16.344L42.3797 8.808C42.2197 8.248 42.1957 7.76 42.3077 7.344C42.4357 6.912 42.6677 6.576 43.0037 6.336C43.3397 6.096 43.7637 5.976 44.2757 5.976C44.8517 5.976 45.2917 6.112 45.5957 6.384C45.9157 6.656 46.1477 7.152 46.2917 7.872L47.6837 13.92H46.8677L50.5157 7.464C50.8197 6.904 51.1397 6.52 51.4757 6.312C51.8277 6.088 52.2757 5.976 52.8197 5.976C53.3637 5.976 53.7797 6.096 54.0677 6.336C54.3717 6.56 54.5397 6.864 54.5717 7.248C54.6037 7.616 54.4837 8.024 54.2117 8.472L49.2437 16.728C48.9237 17.256 48.5717 17.64 48.1877 17.88C47.8037 18.104 47.3797 18.216 46.9157 18.216ZM60.8434 18.264C59.5794 18.264 58.4754 18.04 57.5314 17.592C56.5874 17.128 55.8514 16.48 55.3234 15.648C54.7954 14.816 54.5314 13.848 54.5314 12.744C54.5314 11.384 54.8274 10.192 55.4194 9.168C56.0274 8.144 56.8434 7.352 57.8674 6.792C58.9074 6.216 60.0594 5.928 61.3234 5.928C62.3474 5.928 63.2114 6.096 63.9154 6.432C64.6354 6.768 65.2034 7.224 65.6194 7.8C66.0514 8.376 66.3394 9.032 66.4834 9.768C66.6274 10.488 66.6514 11.232 66.5554 12C66.5074 12.4 66.3954 12.664 66.2194 12.792C66.0434 12.904 65.8114 12.96 65.5234 12.96H58.0114L58.2994 10.944H63.6274L63.2434 11.256C63.3234 10.76 63.2994 10.32 63.1714 9.936C63.0594 9.552 62.8434 9.256 62.5234 9.048C62.2194 8.824 61.8034 8.712 61.2754 8.712C60.7634 8.712 60.3314 8.824 59.9794 9.048C59.6274 9.272 59.3394 9.576 59.1154 9.96C58.9074 10.344 58.7714 10.776 58.7074 11.256L58.5394 12.192C58.3954 13.136 58.5714 13.864 59.0674 14.376C59.5634 14.872 60.3154 15.12 61.3234 15.12C61.6914 15.12 62.0994 15.08 62.5474 15C63.0114 14.92 63.4114 14.8 63.7474 14.64C64.1794 14.464 64.5394 14.424 64.8274 14.52C65.1314 14.616 65.3554 14.8 65.4994 15.072C65.6434 15.328 65.6994 15.616 65.6674 15.936C65.6514 16.256 65.5474 16.568 65.3554 16.872C65.1634 17.16 64.8754 17.384 64.4914 17.544C63.9314 17.8 63.3314 17.984 62.6914 18.096C62.0674 18.208 61.4514 18.264 60.8434 18.264ZM70.0809 22.536C69.5529 22.536 69.1369 22.416 68.8329 22.176C68.5449 21.952 68.3849 21.648 68.3529 21.264C68.3369 20.88 68.4569 20.472 68.7129 20.04L70.9929 16.344L70.7529 18.072L68.1609 8.808C68.0009 8.248 67.9769 7.76 68.0889 7.344C68.2169 6.912 68.4489 6.576 68.7849 6.336C69.1209 6.096 69.5449 5.976 70.0569 5.976C70.6329 5.976 71.0729 6.112 71.3769 6.384C71.6809 6.656 71.9129 7.152 72.0729 7.872L73.4649 13.92H72.6489L76.2969 7.464C76.6009 6.92 76.9209 6.536 77.2569 6.312C77.6089 6.088 78.0569 5.976 78.6009 5.976C79.1289 5.976 79.5449 6.096 79.8489 6.336C80.1529 6.56 80.3209 6.864 80.3529 7.248C80.3849 7.616 80.2649 8.024 79.9929 8.472L72.4089 21.024C72.0889 21.568 71.7609 21.952 71.4249 22.176C71.0889 22.416 70.6409 22.536 70.0809 22.536Z" fill="#435EBE"/>
</svg>
